<svg width="387" height="30" viewBox="0 0 387 30" fill="none" xmlns="http://www.w3.org/2000/svg">
<path d="M0 12C0 5.37258 5.37258 0 12 0H375C381.627 0 387 5.37258 387 12V30H0V12Z" fill="#9182FE"/>
<path d="M59.1016 0C58.5063 0.302805 57.937 0.633833 57.4463 0.992188C55.218 2.61964 54.6464 3.46786 53.9121 5.98633C53.1033 8.76048 53.0955 10.1209 54.4258 13.042C55.7132 15.8689 59.1235 18.3259 59.1592 18.3516C59.1592 18.3516 57.6019 23.8437 59.2529 27.0312C59.8585 28.2003 60.6507 29.1973 61.5742 30H38.8896L39.3418 27.8359C39.362 27.743 42.8072 11.8585 37.9648 4.93652C36.2366 2.46621 34.3165 0.871854 32.1396 0H59.1016ZM160.221 0C161.522 0.547728 162.62 1.10564 163.469 1.58203C163.74 1.73422 163.986 1.87879 164.205 2.01074C164.203 2.01018 164.201 2.00935 164.198 2.00879C161.989 1.47201 158.321 1.62279 155.239 1.89844C153.692 2.03689 152.28 2.20801 151.255 2.34473C150.743 2.41306 150.326 2.47295 150.038 2.51562C149.894 2.53692 149.782 2.55466 149.706 2.56641C149.668 2.57223 149.639 2.57602 149.619 2.5791C149.61 2.58057 149.602 2.58222 149.597 2.58301C149.594 2.58344 149.592 2.58379 149.591 2.58398H149.589L149.586 3.0752L149.591 3.07617C149.595 3.07687 149.601 3.07773 149.608 3.0791C149.624 3.08193 149.648 3.08631 149.678 3.0918C149.738 3.10285 149.827 3.11963 149.94 3.14062C150.169 3.18278 150.499 3.24339 150.902 3.31934C151.71 3.4713 152.817 3.6831 154.009 3.91992C156.397 4.39457 159.114 4.96948 160.479 5.37695C161.837 5.78256 162.858 6.05944 163.621 6.25293C161.838 6.84504 159.997 7.78739 158.484 8.66113C157.475 9.24455 156.604 9.80126 155.986 10.2129C155.678 10.4187 155.432 10.5888 155.263 10.707C155.178 10.7661 155.113 10.8121 155.068 10.8438C155.046 10.8595 155.029 10.8717 155.018 10.8799C155.012 10.8838 155.008 10.8866 155.005 10.8887L155.001 10.8926L154.395 11.334L155.147 11.3438H155.221C155.269 11.3442 155.339 11.345 155.43 11.3457C155.611 11.347 155.874 11.3481 156.197 11.3486C156.843 11.3497 157.732 11.3471 158.703 11.332C160.638 11.3019 162.919 11.2232 164.244 11.0225C165.304 10.8618 166.373 10.9204 167.262 11.0439C166.316 11.3404 165.399 11.8786 164.548 12.5264C163.542 13.2917 162.616 14.2206 161.83 15.1152C161.044 16.0105 160.393 16.8762 159.939 17.5176C159.713 17.8383 159.535 18.1038 159.413 18.2891C159.352 18.3816 159.306 18.4552 159.274 18.5049C159.259 18.5292 159.246 18.5476 159.238 18.5605L159.228 18.5801L159.226 18.5811V18.582L158.764 19.332L159.554 18.9336L159.558 18.9316C159.56 18.9304 159.564 18.9292 159.569 18.9268C159.58 18.9216 159.595 18.9134 159.615 18.9033C159.656 18.883 159.717 18.8527 159.794 18.8145C159.949 18.7379 160.174 18.6285 160.451 18.4951C161.006 18.2278 161.773 17.8666 162.618 17.4912C164.318 16.7361 166.302 15.9369 167.53 15.7119C168.738 15.4907 169.917 15.7003 170.801 15.9707C171.241 16.1055 171.606 16.2534 171.858 16.3682C171.94 16.4053 172.01 16.4403 172.067 16.4688C168.048 20.4088 165.996 24.9507 167.63 30H141.313C138.868 28.0127 135.959 26.3711 132.696 25.2344C132.876 24.3898 133.041 23.4634 133.125 22.5879C133.142 22.4059 133.156 22.2203 133.166 22.0342C133.31 22.0745 133.461 22.1152 133.615 22.1543C134.842 22.465 136.587 22.7764 138.049 22.4316C139.642 22.0559 141.142 20.8464 142.143 19.9023C142.668 19.4066 143.108 18.9327 143.417 18.583C143.572 18.4077 143.695 18.2616 143.78 18.1582C143.823 18.1067 143.856 18.0653 143.88 18.0361C143.891 18.0217 143.902 18.0104 143.908 18.002C143.912 17.9977 143.915 17.9938 143.917 17.9912C143.918 17.99 143.919 17.9881 143.92 17.9873V17.9854L143.921 17.9863L144.956 16.668L143.399 16.0566L142.938 17.2178C143.366 16.141 143.396 16.0615 143.398 16.0557L143.399 16.0547L143.393 16.0527C143.389 16.0513 143.384 16.0492 143.378 16.0469C143.366 16.0423 143.35 16.0361 143.329 16.0283C143.288 16.0126 143.228 15.9908 143.153 15.9639C143.003 15.9097 142.789 15.8347 142.525 15.75C142 15.5811 141.266 15.3689 140.439 15.1973C139.617 15.0265 138.673 14.89 137.733 14.8867C136.805 14.8836 135.796 15.0102 134.899 15.4326C133.758 15.9707 132.738 17.0256 132.046 17.8516C131.61 17.1679 131.11 16.5466 130.671 16.0449C130.221 15.531 129.794 15.0966 129.479 14.791C129.322 14.6379 129.19 14.5157 129.098 14.4307C129.052 14.3884 129.015 14.3544 128.989 14.3311C128.976 14.3195 128.965 14.3103 128.958 14.3037C128.954 14.3006 128.951 14.2979 128.949 14.2959C128.948 14.295 128.946 14.2945 128.945 14.2939L128.944 14.292L128.251 15.0791L128.944 14.291C128.426 13.8372 127.635 13.8903 127.178 14.4092C126.721 14.928 126.771 15.7168 127.289 16.1709C127.29 16.1714 127.291 16.1723 127.293 16.1738C127.297 16.1775 127.305 16.1848 127.314 16.1934C127.334 16.2104 127.363 16.2364 127.401 16.2715C127.479 16.3425 127.592 16.4498 127.731 16.585C128.011 16.8563 128.39 17.2404 128.784 17.6914C129.612 18.638 130.364 19.7131 130.598 20.5918C130.69 20.9408 130.712 21.5421 130.634 22.3594C130.569 23.0392 130.441 23.7825 130.293 24.5059C120.879 22.0709 111.571 24.4462 106.186 30H89.1855C90.1326 28.0286 90.5928 26.1551 90.6016 26.1191C90.6016 26.1191 94.7934 25.536 97.2793 23.6279C99.8317 21.6688 100.105 20.374 100.7 17.5537L100.702 17.5449C101.244 14.9784 101.501 14.0524 100.302 11.5781C98.995 8.88236 95.7228 5.85909 95.6924 5.83105C95.6924 5.83105 95.3732 2.40165 94.0742 0H160.221ZM265.531 0C264.094 1.72969 263.011 3.7222 262.378 5.93848C259.712 15.273 265.927 25.391 276.562 30H250.752C250.487 29.3449 250.168 28.7163 249.778 28.1885C247.887 25.6254 246.329 24.1269 243.213 24.1201C241.975 24.1175 240.411 24.4801 239.186 24.832C239.177 24.6835 239.152 24.5336 239.104 24.3857C239.104 24.3857 239.102 24.3798 239.1 24.3701C239.094 24.3489 239.082 24.309 239.071 24.2559C239.048 24.1434 239.029 24.003 239.03 23.8672C239.031 23.7405 239.051 23.6679 239.062 23.6377C239.594 23.3062 239.869 23.2429 240.189 23.1699C240.662 23.0622 241.324 22.9308 242.207 22.3691C242.784 22.0021 243.215 21.5161 243.478 20.9258C243.724 20.373 243.773 19.8371 243.784 19.4512C243.786 19.3768 243.784 19.2836 243.783 19.1855C243.874 19.7431 244.047 20.2668 244.273 20.7285C244.74 21.6822 245.572 22.6619 246.719 23.042C247.496 23.2993 248.524 23.2953 249.344 23.1582C249.78 23.0852 250.276 22.9557 250.736 22.7285C251.17 22.5143 251.781 22.1085 252.114 21.374C252.903 19.6368 253.012 17.2556 251.701 15.5674C251.614 15.4556 251.524 15.3476 251.431 15.2432C251.58 15.2317 251.683 15.2407 251.748 15.2568C251.81 15.2723 251.864 15.2945 251.941 15.3926C252.041 15.5187 252.216 15.8252 252.336 16.4824C252.512 17.4452 253.437 18.0811 254.402 17.9023C255.367 17.7233 256.007 16.7976 255.831 15.835C255.642 14.8036 255.296 13.9042 254.737 13.1943C254.157 12.4572 253.414 12.0117 252.616 11.8135C251.154 11.4504 249.689 11.963 248.837 12.3135C248.329 12.5224 247.805 12.7935 247.297 13.1094C246.462 13.0024 245.61 13.0439 244.795 13.2412C243.157 13.6377 240.973 14.7077 240.368 17.1172C240.234 17.6512 240.216 18.1427 240.218 18.5186C240.219 18.7018 240.225 18.8874 240.229 19.0215C240.233 19.1686 240.234 19.274 240.231 19.3643C240.231 19.3865 240.229 19.4066 240.228 19.4238C239.945 19.5937 239.79 19.6252 239.409 19.7119C238.845 19.8404 238.16 20.0236 237.178 20.6367C235.919 21.4228 235.561 22.6463 235.491 23.5312C234.747 22.7894 233.823 22.014 232.855 21.5615C230.167 20.3044 226.77 20.4407 224.046 21.832C221.505 23.1303 220.463 27.0645 220.463 27.0645C220.463 27.0645 216.099 28.2106 213.659 29.9922C213.656 29.9948 213.652 29.9974 213.648 30H202.604C204.505 24.6664 203.933 18.5092 200.516 13.3926C196.121 6.81313 189.944 6.32822 183.447 8.98633C183.443 8.9228 183.438 8.84539 183.436 8.75586C183.428 8.48014 183.431 8.08975 183.478 7.63477C183.571 6.72152 183.837 5.56372 184.513 4.5459C185.2 3.51118 186.715 2.00874 188.078 0.75C188.364 0.485656 188.644 0.234056 188.905 0H265.531ZM350.202 0.52832C352.677 1.60685 355.442 2.78491 356.544 3.15723C358.842 3.93349 360.714 4.85494 362.01 5.58203C362.281 5.7342 362.527 5.87877 362.746 6.01074C362.744 6.01018 362.742 6.00935 362.739 6.00879C360.53 5.47214 356.862 5.62283 353.781 5.89844C352.234 6.03689 350.821 6.20801 349.796 6.34473C349.284 6.41303 348.868 6.47296 348.58 6.51562C348.436 6.53696 348.323 6.55465 348.247 6.56641C348.21 6.5722 348.181 6.57602 348.161 6.5791C348.152 6.5806 348.144 6.58222 348.139 6.58301C348.136 6.58337 348.134 6.58368 348.133 6.58398H348.13L348.127 7.0752L348.133 7.07617C348.137 7.07684 348.142 7.07779 348.149 7.0791C348.165 7.08192 348.189 7.08629 348.219 7.0918C348.279 7.10285 348.368 7.11959 348.482 7.14062C348.711 7.18277 349.04 7.24344 349.443 7.31934C350.251 7.4713 351.358 7.68307 352.55 7.91992C354.938 8.39455 357.655 8.96947 359.02 9.37695C360.378 9.78248 361.398 10.0595 362.162 10.2529C360.379 10.8451 358.538 11.7874 357.025 12.6611C356.016 13.2446 355.145 13.8013 354.527 14.2129C354.219 14.4187 353.973 14.5888 353.804 14.707C353.72 14.7659 353.655 14.8122 353.61 14.8438C353.588 14.8596 353.571 14.8726 353.56 14.8809C353.554 14.8848 353.549 14.8866 353.546 14.8887C353.545 14.8897 353.544 14.892 353.543 14.8926H353.542L352.936 15.334L353.688 15.3438H353.762C353.81 15.3442 353.881 15.345 353.972 15.3457C354.153 15.347 354.416 15.3481 354.738 15.3486C355.384 15.3497 356.273 15.3471 357.244 15.332C359.179 15.3019 361.46 15.2232 362.785 15.0225C363.845 14.8618 364.914 14.9204 365.803 15.0439C364.858 15.3405 363.941 15.8788 363.09 16.5264C362.084 17.2918 361.157 18.2206 360.371 19.1152C359.585 20.0104 358.935 20.8763 358.481 21.5176C358.255 21.8383 358.077 22.1037 357.955 22.2891C357.894 22.3816 357.847 22.4551 357.815 22.5049C357.8 22.5292 357.787 22.5477 357.779 22.5605L357.769 22.5801L357.767 22.5811L357.768 22.582L357.305 23.332L358.096 22.9336L358.099 22.9316C358.101 22.9304 358.105 22.9292 358.11 22.9268L358.335 22.8145C358.49 22.7378 358.716 22.6287 358.993 22.4951C359.548 22.2279 360.315 21.8665 361.159 21.4912C362.859 20.736 364.844 19.9368 366.072 19.7119C367.28 19.4907 368.459 19.7003 369.343 19.9707C369.783 20.1054 370.147 20.2535 370.399 20.3682C370.481 20.4053 370.551 20.4403 370.608 20.4688C367.681 23.3385 365.797 26.5274 365.621 30H351.457C351.262 29.6235 351.049 29.2651 350.814 28.9297C346.958 23.4167 342.102 22.4725 335.427 24.2822C334.36 24.5715 333.215 25.0865 332.11 25.6855C332.147 25.6502 334.862 22.9998 335.436 20.1699C335.891 17.9214 335.271 14.102 334.989 12.5918C334.929 12.2675 334.575 12.1006 334.284 12.2568C332.694 13.1132 328.304 15.5712 327.212 17.1738C325.589 19.5561 325.161 21.4857 325.264 23.8887C325.34 25.6908 325.936 27.9875 326.229 29.0234L326.391 29.5742L325.464 29.3779C323.729 29.0385 319.925 28.4305 317.257 28.9961C316.094 29.2426 314.998 29.5792 313.977 30H299.601C304.273 27.7095 307.796 23.9354 309.178 19.0986C311.105 12.3489 308.388 5.1903 302.716 0H349.002C349.389 0.170073 349.791 0.349267 350.202 0.52832ZM248.011 17.0068C248.355 17.1958 248.657 17.4454 248.891 17.7461C249.125 18.0486 249.273 18.7829 249 19.6084C248.938 19.6254 248.86 19.6446 248.768 19.6602C248.559 19.695 248.335 19.7082 248.138 19.7021C247.989 19.6975 247.899 19.6833 247.863 19.6768C247.848 19.6665 247.812 19.6424 247.763 19.5928C247.669 19.4989 247.56 19.3528 247.467 19.1621C247.274 18.7685 247.218 18.3349 247.308 17.9766C247.35 17.8096 247.545 17.4567 248.011 17.0068ZM385.36 5.94727C386.337 7.61588 386.924 9.54002 386.992 11.5967C385.363 11.809 383.687 12.2921 381.988 12.9873C381.984 12.9235 381.979 12.8457 381.977 12.7559C381.969 12.4802 381.973 12.0897 382.02 11.6348C382.113 10.7216 382.378 9.56363 383.054 8.5459C383.532 7.8261 384.411 6.88029 385.36 5.94727ZM381.086 1.6582C381.972 2.18052 382.785 2.81178 383.506 3.53613C382.744 3.83038 381.976 4.17576 381.26 4.5791C380.327 5.1042 379.47 5.73225 378.826 6.48047C379.058 5.62039 379.42 4.62075 379.982 3.71484C380.309 3.18802 380.691 2.46108 381.086 1.6582ZM11.1494 0.0302734C11.2895 1.8535 11.8517 4.0206 12.1387 5.03516L12.3086 5.61328L11.335 5.40625C9.51243 5.04973 5.5171 4.41182 2.71387 5.00586C2.52879 5.04509 2.34494 5.08638 2.16309 5.12988C4.18025 2.24699 7.43011 0.290745 11.1494 0.0302734ZM183.862 0C183.473 0.178679 183.088 0.370682 182.718 0.579102C181.785 1.1042 180.928 1.73226 180.284 2.48047C180.492 1.70938 180.807 0.827332 181.274 0H183.862ZM21.8008 0.0537109C20.68 0.357566 19.4767 0.899003 18.3164 1.52832C18.3276 1.5174 18.9342 0.924737 19.6475 0H22.0068C21.9385 0.0180794 21.8695 0.0350736 21.8008 0.0537109ZM371.594 0.175781C371.512 0.551232 371.457 0.949022 371.426 1.36426C371.421 1.33963 371.417 1.31429 371.412 1.28809C371.358 0.969984 371.292 0.534917 371.23 0H371.637C371.622 0.0594848 371.606 0.117687 371.594 0.175781ZM376.201 0.0585938C376.436 0.0819678 376.669 0.113633 376.9 0.150391C376.591 0.447427 376.291 0.751208 376.007 1.05957C376.067 0.763199 376.132 0.430893 376.201 0.0585938ZM361.729 0.268555C361.638 0.202964 361.55 0.136241 361.461 0.0742188C361.425 0.0489487 361.388 0.0246986 361.352 0H361.617L361.729 0.268555Z" fill="#C4E9F0"/>
</svg>
