<svg width="196" height="175" viewBox="0 0 196 175" fill="none" xmlns="http://www.w3.org/2000/svg">
<path d="M89.7308 0.269485C111.004 -1.54375 132.447 5.84002 147.188 21.007C151.991 25.1153 156.7 32.8386 161.233 36.6717C181.14 53.5052 196.276 63.8211 195.996 92.4861C195.719 120.902 181.033 132.419 158.444 146.879C139.959 158.713 133.1 175.053 107.034 175C90.6385 175.073 82.4997 166.857 67.3628 162.205C50.4361 157.002 33.2439 157.809 18.7206 146.478C-4.28088 128.534 -5.01019 92.7201 10.6599 69.9512C15.1029 63.7754 20.2226 57.9179 24.266 51.4708C29.5229 43.0882 33.5077 33.0302 40.0318 25.4961C53.4808 9.96462 69.2193 2.37888 89.7308 0.269485Z" fill="#FFC974"/>
<path d="M90.321 39.9731C94.7824 43.6129 105.02 42.7249 105.02 42.7249C105.02 42.7249 103.404 33.9567 99.3035 30.5383C94.9474 26.9064 85.0131 27.0002 85.0131 27.0002C85.0131 27.0002 86.0062 36.4529 90.321 39.9731Z" fill="#7C9557" stroke="#7C9557" stroke-linecap="round"/>
<path d="M101.724 53.7551C101.724 53.7551 104.383 42.1864 107.86 37.2736C113.439 29.3912 121.496 30.8244 121.496 30.8244" stroke="black" stroke-width="2.5" stroke-linecap="round"/>
<path d="M120.946 48.9243C113.35 48.6508 109.46 52.4151 101.86 52.5436C93.5275 52.6845 89.1758 48.3349 80.8649 48.9243C55.4881 50.7241 43.4582 75.3451 45.1579 99.8119C46.7582 122.848 59.2625 140.133 82.7735 144.568C90.0883 145.948 94.4286 143.38 101.947 143.244C110.698 143.086 115.681 146.563 124.127 144.568C146.329 139.325 156.916 121.81 158.118 99.8119C159.464 75.1834 146.52 49.8453 120.946 48.9243Z" fill="#EB4C48"/>
<path d="M93.2597 93.5387C93.2597 93.5387 92.6411 100.518 101.92 100.518C109.963 100.518 109.963 93.5387 109.963 93.5387" stroke="black" stroke-width="2.5" stroke-linecap="round"/>
<ellipse cx="82.7986" cy="80.1824" rx="10.4956" ry="10.3743" fill="white"/>
<path d="M82.7731 90.9795C88.336 90.9794 92.885 86.7012 93.2428 81.292C90.9644 78.8644 87.0704 77.0206 82.7516 77.0205C78.4088 77.0205 74.5436 78.8854 72.3053 81.333C72.6833 86.7229 77.2241 90.9795 82.7731 90.9795Z" fill="black"/>
<ellipse cx="120.223" cy="80.1824" rx="10.4956" ry="10.3743" fill="white"/>
<path d="M120.197 90.9795C125.76 90.9794 130.309 86.7013 130.667 81.292C128.388 78.8644 124.494 77.0206 120.176 77.0205C115.833 77.0205 111.968 78.8854 109.729 81.333C110.107 86.7229 114.648 90.9795 120.197 90.9795Z" fill="black"/>
<path d="M71.762 97.0495C72.7974 98.0381 75.5998 98.5039 76.4849 100.458C76.723 100.984 77.6009 103.126 77.9059 103.235C77.8304 103.278 77.7549 103.32 77.6795 103.363C77.5072 105.238 77.2309 107.121 75.8121 108.501C72.5132 111.712 66.4875 111.898 63.162 108.605C62.0043 107.459 60.9899 105.578 61.0001 103.939C61.022 100.437 64.0448 97.5371 67.4207 97.0941C68.9081 96.8984 70.2955 97.0724 71.762 97.0495Z" fill="#FE6973"/>
<path d="M71.2729 103.569C72.3198 103.49 75.3656 103.785 74.7583 104.339C73.8731 104.638 71.1854 104.382 69.9708 104.413C69.416 104.427 68.2158 104.444 67.6918 104.425C66.469 104.448 63.1514 104.709 63.8781 103.845C64.8097 103.477 66.0088 103.568 67.1895 103.559C68.4988 103.548 69.874 103.603 71.1772 103.571L71.2729 103.569Z" fill="#F23C4B"/>
<path d="M135.762 97.0495C136.797 98.0381 139.6 98.5039 140.485 100.458C140.723 100.984 141.601 103.126 141.906 103.235C141.83 103.278 141.755 103.32 141.679 103.363C141.507 105.238 141.231 107.121 139.812 108.501C136.513 111.712 130.488 111.898 127.162 108.605C126.004 107.459 124.99 105.578 125 103.939C125.022 100.437 128.045 97.5371 131.421 97.0941C132.908 96.8984 134.295 97.0724 135.762 97.0495Z" fill="#FE6973"/>
<path d="M135.273 103.569C136.32 103.49 139.366 103.785 138.758 104.339C137.873 104.638 135.185 104.382 133.971 104.413C133.416 104.427 132.216 104.444 131.692 104.425C130.469 104.448 127.151 104.709 127.878 103.845C128.81 103.477 130.009 103.568 131.19 103.559C132.499 103.548 133.874 103.603 135.177 103.571L135.273 103.569Z" fill="#F23C4B"/>
<path d="M133.697 85C134.113 85.3811 134.16 86.9845 134.985 87.6922C135.799 88.3909 136.763 88.265 137.254 88.6312C137.074 88.9326 136.055 88.8142 135.376 89.3135C134.253 90.1381 134.118 91.1621 133.875 92.4141L133.756 92.4883L133.657 92.4344C133.142 89.8683 132.679 89.0392 130 88.6142C130.967 88.3539 132.238 88.0972 132.829 87.2235C133.247 86.6044 133.571 85.7287 133.697 85Z" fill="#FEFEFE"/>
<path d="M128.254 90.0063C129.235 89.9347 129.59 90.4778 128.973 91.2931C128.052 91.3387 127.724 90.7664 128.254 90.0063Z" fill="#FEFEFE"/>
</svg>
