<svg width="430" height="398" viewBox="0 0 430 398" fill="none" xmlns="http://www.w3.org/2000/svg">
<path d="M166.551 56.2615C185.506 71.9065 229 68.0895 229 68.0895C229 68.0895 222.134 30.4015 204.714 15.7084C186.207 0.0978 144 0.500973 144 0.500973C144 0.500973 148.22 41.131 166.551 56.2615Z" fill="#7C9557" stroke="#7C9557" stroke-linecap="round"/>
<path d="M215 115.5C215 115.5 226.296 65.7751 241.069 44.6586C264.771 10.7782 299 16.938 299 16.938" stroke="black" stroke-width="7" stroke-linecap="round"/>
<path d="M296.663 94.7362C264.391 93.5605 247.863 109.74 215.574 110.293C180.174 110.898 161.686 92.2027 126.376 94.7362C18.5599 102.472 -32.5505 208.299 -25.3291 313.464C-18.5301 412.478 34.5955 486.776 134.485 505.839C165.562 511.77 184.002 500.731 215.944 500.147C253.123 499.467 274.295 514.413 310.178 505.839C404.505 483.3 449.487 408.019 454.595 313.464C460.314 207.604 405.317 98.6947 296.663 94.7362Z" fill="#EB4C48"/>
<path d="M179.036 286.5C179.036 286.5 176.408 316.5 215.832 316.5C250 316.5 250 286.5 250 286.5" stroke="black" stroke-width="7" stroke-linecap="round"/>
<circle cx="134.592" cy="229.092" r="44.5915" fill="white"/>
<path d="M134.482 184.5C158.117 184.5 177.453 202.888 178.974 226.138C169.294 236.575 152.743 244.5 134.391 244.5C115.939 244.5 99.5096 236.491 90 225.97C91.6025 202.799 110.905 184.5 134.482 184.5Z" fill="black"/>
<circle cx="293.592" cy="229.092" r="44.5915" fill="white"/>
<path d="M293.592 184.5C317.226 184.5 336.562 202.888 338.083 226.138C328.404 236.575 311.853 244.5 293.5 244.5C275.048 244.5 258.619 236.491 249.109 225.97C250.712 202.799 270.014 184.5 293.592 184.5Z" fill="black"/>
<path d="M93.8342 247.712C98.2437 251.951 110.179 253.949 113.948 262.329C114.963 264.583 118.701 273.766 120 274.236C119.679 274.418 119.357 274.601 119.036 274.783C118.302 282.822 117.125 290.896 111.083 296.816C97.0335 310.581 71.3707 311.379 57.2075 297.26C52.2773 292.345 47.9568 284.281 48.0003 277.255C48.0938 262.237 60.9674 249.803 75.3451 247.903C81.6794 247.064 87.5884 247.81 93.8342 247.712Z" fill="#FE6973"/>
<path d="M91.855 275.561C96.3026 275.223 109.243 276.491 106.663 278.871C102.902 280.155 91.4833 279.054 86.3228 279.189C83.9656 279.25 78.8663 279.322 76.6403 279.243C71.4449 279.34 57.3497 280.463 60.4373 276.747C64.3951 275.165 69.49 275.555 74.5062 275.516C80.069 275.473 85.9117 275.707 91.4483 275.572L91.855 275.561Z" fill="#F23C4B"/>
<path d="M355.834 247.712C360.244 251.951 372.179 253.949 375.948 262.329C376.963 264.583 380.701 273.766 382 274.236C381.679 274.418 381.357 274.601 381.036 274.783C380.302 282.822 379.125 290.896 373.083 296.816C359.034 310.581 333.371 311.379 319.208 297.26C314.277 292.345 309.957 284.281 310 277.255C310.094 262.237 322.967 249.803 337.345 247.903C343.679 247.064 349.588 247.81 355.834 247.712Z" fill="#FE6973"/>
<path d="M353.855 275.561C358.303 275.223 371.243 276.491 368.663 278.871C364.902 280.155 353.483 279.054 348.323 279.189C345.966 279.25 340.866 279.322 338.64 279.243C333.445 279.34 319.35 280.463 322.437 276.747C326.395 275.165 331.49 275.555 336.506 275.516C342.069 275.473 347.912 275.707 353.448 275.572L353.855 275.561Z" fill="#F23C4B"/>
<path d="M366.799 217.5C368.578 219.129 368.777 225.981 372.301 229.005C375.782 231.991 379.901 231.452 382 233.017C381.229 234.305 376.877 233.799 373.973 235.933C369.174 239.457 368.599 243.833 367.559 249.183L367.05 249.5L366.627 249.27C364.428 238.304 362.447 234.761 351 232.945C355.131 231.832 360.563 230.736 363.088 227.002C364.876 224.356 366.258 220.614 366.799 217.5Z" fill="#FEFEFE"/>
<path d="M351.991 214.529C355.829 214.198 357.216 216.713 354.805 220.488C351.204 220.699 349.922 218.049 351.991 214.529Z" fill="#FEFEFE"/>
</svg>
