<svg width="118" height="125" viewBox="0 0 118 125" fill="none" xmlns="http://www.w3.org/2000/svg">
<path d="M47.161 13.6583C51.8035 17.4904 62.4564 16.5554 62.4564 16.5554C62.4564 16.5554 60.7747 7.32411 56.5082 3.72516C51.9753 -0.0985152 41.6376 0.000238238 41.6376 0.000238238C41.6376 0.000238238 42.6711 9.95219 47.161 13.6583Z" fill="#7C9557"/>
<path d="M59.0275 28.1682C59.0275 28.1682 61.7942 15.9886 65.4125 10.8163C71.2179 2.51756 79.6014 4.02635 79.6014 4.02635" stroke="black" stroke-width="3" stroke-linecap="round"/>
<path d="M79.029 23.0823C71.1247 22.7943 67.0766 26.7574 59.168 26.8927C50.4977 27.041 45.9693 22.4617 37.321 23.0823C10.9139 24.9771 -1.60439 50.8985 0.164316 76.6576C1.82958 100.91 14.8415 119.109 39.3071 123.778C46.9188 125.231 51.4353 122.527 59.2587 122.384C68.3649 122.217 73.5503 125.878 82.3391 123.778C105.442 118.257 116.46 99.818 117.711 76.6576C119.111 50.7283 105.641 24.0519 79.029 23.0823Z" fill="#EB4C48"/>
<path d="M50.219 70.0531C50.219 70.0531 49.5753 77.4013 59.2313 77.4013C67.5999 77.4013 67.5999 70.0531 67.5999 70.0531" stroke="black" stroke-width="3" stroke-linecap="round"/>
<ellipse cx="39.3332" cy="55.9914" rx="10.9217" ry="10.9223" fill="white"/>
<ellipse cx="78.2767" cy="55.9914" rx="10.9217" ry="10.9223" fill="white"/>
<path d="M83.6547 50.8309C83.6547 50.8309 73.5949 55.3791 73.5949 56.7141C73.5949 58.0492 83.6547 61.4207 83.6547 61.4207" stroke="black" stroke-width="4" stroke-linecap="round"/>
<path d="M29.3889 60.5525C30.4726 61.5871 33.4059 62.0747 34.3323 64.1205C34.5815 64.6707 35.5004 66.9123 35.8196 67.0271C35.7406 67.0716 35.6616 67.1162 35.5827 67.1607C35.4023 69.123 35.1131 71.0939 33.6281 72.5391C30.1752 75.8992 23.8681 76.094 20.3873 72.6473C19.1756 71.4477 18.1138 69.4792 18.1245 67.7641C18.1475 64.0981 21.3114 61.0628 24.8449 60.5991C26.4017 60.3943 27.8539 60.5763 29.3889 60.5525Z" fill="#FE6973"/>
<path d="M28.8659 67.3736C29.9552 67.2908 33.1247 67.6015 32.4928 68.1844C31.5716 68.4989 28.7748 68.2292 27.5109 68.2623C26.9335 68.2774 25.6846 68.2949 25.1394 68.2755C23.8669 68.2992 20.4146 68.5743 21.1708 67.6642C22.1402 67.2766 23.3881 67.3722 24.6167 67.3627C25.9792 67.3521 27.4102 67.4094 28.7663 67.3764L28.8659 67.3736Z" fill="#F23C4B"/>
<path d="M93.5598 60.5525C94.6435 61.5871 97.5768 62.0747 98.5032 64.1205C98.7524 64.6707 99.6713 66.9123 99.9905 67.0271C99.9115 67.0716 99.8325 67.1162 99.7536 67.1607C99.5732 69.123 99.284 71.0939 97.799 72.5391C94.3461 75.8992 88.039 76.094 84.5582 72.6473C83.3465 71.4477 82.2847 69.4792 82.2954 67.7641C82.3184 64.0981 85.4823 61.0628 89.0158 60.5991C90.5726 60.3943 92.0248 60.5763 93.5598 60.5525Z" fill="#FE6973"/>
<path d="M93.0368 67.3736C94.1261 67.2908 97.2956 67.6015 96.6636 68.1844C95.7425 68.4989 92.9457 68.2292 91.6818 68.2623C91.1044 68.2774 89.8555 68.2949 89.3103 68.2755C88.0378 68.2992 84.5855 68.5743 85.3417 67.6642C86.3111 67.2766 87.559 67.3722 88.7876 67.3627C90.1501 67.3521 91.5811 67.4094 92.9372 67.3764L93.0368 67.3736Z" fill="#F23C4B"/>
<path d="M96.2072 53.1523C96.6428 53.5513 96.6917 55.2295 97.5547 55.9703C98.4073 56.7016 99.4163 56.5698 99.9304 56.9531C99.7415 57.2685 98.6755 57.1446 97.9643 57.6672C96.7887 58.5303 96.648 59.6021 96.3932 60.9126L96.2687 60.9902L96.165 60.9338C95.6265 58.248 95.1412 57.3802 92.3374 56.9353C93.3493 56.6628 94.6797 56.3942 95.2983 55.4796C95.7361 54.8317 96.0746 53.915 96.2072 53.1523Z" fill="#FEFEFE"/>
<path d="M92.6027 52.424C93.6295 52.3491 94.0008 52.9171 93.3555 53.7697C92.392 53.8174 92.049 53.2188 92.6027 52.424Z" fill="#FEFEFE"/>
<path d="M34.4149 50.8309C34.4149 50.8309 44.4747 55.3791 44.4747 56.7141C44.4747 58.0492 34.4149 61.4207 34.4149 61.4207" stroke="black" stroke-width="4" stroke-linecap="round"/>
</svg>
